<?xml version="1.0" encoding="UTF-8" standalone="no"?>
<!-- Created with Inkscape (http://www.inkscape.org/) -->

<svg
   width="210mm"
   height="297mm"
   viewBox="0 0 210 297"
   version="1.1"
   id="svg5"
   inkscape:version="1.1 (c68e22c387, 2021-05-23)"
   sodipodi:docname="eight.svg"
   xmlns:inkscape="http://www.inkscape.org/namespaces/inkscape"
   xmlns:sodipodi="http://sodipodi.sourceforge.net/DTD/sodipodi-0.dtd"
   xmlns="http://www.w3.org/2000/svg"
   xmlns:svg="http://www.w3.org/2000/svg">
  <sodipodi:namedview
     id="namedview7"
     pagecolor="#ffffff"
     bordercolor="#666666"
     borderopacity="1.0"
     inkscape:pageshadow="2"
     inkscape:pageopacity="0.0"
     inkscape:pagecheckerboard="0"
     inkscape:document-units="mm"
     showgrid="false"
     inkscape:zoom="6.2217172"
     inkscape:cx="50.709473"
     inkscape:cy="94.909489"
     inkscape:window-width="1904"
     inkscape:window-height="2081"
     inkscape:window-x="960"
     inkscape:window-y="0"
     inkscape:window-maximized="1"
     inkscape:current-layer="layer1" />
  <defs
     id="defs2" />
  <g
     inkscape:label="Layer 1"
     inkscape:groupmode="layer"
     id="layer1">
    <path
       style="fill:none;stroke:#ffffff;stroke-width:0.264583px;stroke-linecap:butt;stroke-linejoin:miter;stroke-opacity:1"
       d="M 16.159794,18.923969 C 11.398905,16.113489 5.9037117,14.926084 5.7409794,10.376289 5.6094516,6.5326526 10.532451,2.9102334 14.373711,2.7216494 18.570754,2.5155985 24.408748,5.9225234 24.579897,10.121134 24.434014,20.758023 1.4764549,18.866467 3.1043813,28.534794 3.0386905,33.783613 9.257959,38.619732 14.501289,38.868557 19.509137,39.109657 25.498619,36.260979 26.74871,29.130154 27.302485,17.998164 3.3794149,19.68239 4.2525774,10.418814 4.1015424,5.6279446 9.7173894,1.5750302 14.501288,1.2757732 19.320328,0.97431787 25.975568,5.0000223 26.195876,9.8234536 26.351853,21.441802 1.5294368,19.54973 4.1675258,28.747421 c 0.014774,4.471208 5.6504903,8.730279 10.1211342,8.802836 5.11783,0.08306 11.048808,-3.133288 11.184277,-8.249999 1.026026,-3.557932 -9.079172,-9.911795 -9.313143,-10.376289 z"
       id="path19314"
       sodipodi:nodetypes="cccccccccccccc" />
  </g>
</svg>
