<?xml version="1.0" encoding="UTF-8" standalone="no"?>
<!-- Created with Inkscape (http://www.inkscape.org/) -->

<svg
   width="210mm"
   height="297mm"
   viewBox="0 0 210 297"
   version="1.1"
   id="svg5"
   inkscape:version="1.1 (c68e22c387, 2021-05-23)"
   sodipodi:docname="nine.svg"
   xmlns:inkscape="http://www.inkscape.org/namespaces/inkscape"
   xmlns:sodipodi="http://sodipodi.sourceforge.net/DTD/sodipodi-0.dtd"
   xmlns="http://www.w3.org/2000/svg"
   xmlns:svg="http://www.w3.org/2000/svg">
  <sodipodi:namedview
     id="namedview7"
     pagecolor="#ffffff"
     bordercolor="#666666"
     borderopacity="1.0"
     inkscape:pageshadow="2"
     inkscape:pageopacity="0.0"
     inkscape:pagecheckerboard="0"
     inkscape:document-units="mm"
     showgrid="false"
     inkscape:zoom="6.2217172"
     inkscape:cx="50.709473"
     inkscape:cy="94.909489"
     inkscape:window-width="1904"
     inkscape:window-height="2081"
     inkscape:window-x="960"
     inkscape:window-y="0"
     inkscape:window-maximized="1"
     inkscape:current-layer="layer1" />
  <defs
     id="defs2" />
  <g
     inkscape:label="Layer 1"
     inkscape:groupmode="layer"
     id="layer1">
    <path
       style="fill:none;stroke:#ffffff;stroke-width:0.264583px;stroke-linecap:butt;stroke-linejoin:miter;stroke-opacity:1"
       d="M 6.2938145,37.252577 C 16.707646,42.343292 26.084211,29.493188 26.748711,19.902061 27.261998,12.49348 22.613364,1.8131342 14.331185,2.0412371 8.0359202,2.2146176 3.5136161,7.3453225 3.1469072,12.417525 2.7311025,18.168806 8.7758318,24.136917 14.331185,23.686855 18.655019,23.336563 26.581539,19.413766 26.408505,18.838917 26.097681,19.08015 18.701409,21.897929 14.628866,22.326031 9.5291388,22.86211 3.9091127,18.043883 4.1249999,12.375 4.3002326,7.7736452 9.6890463,2.8031677 14.28866,3.0193299 21.648104,3.3651924 26.636688,13.222473 25.55799,19.902061 23.874691,30.325509 17.551156,38.659986 6.2938145,37.252577 Z"
       id="path22432"
       sodipodi:nodetypes="csssscssssc" />
  </g>
</svg>
