<?xml version="1.0" encoding="UTF-8" standalone="no"?>
<!-- Created with Inkscape (http://www.inkscape.org/) -->

<svg
   width="210mm"
   height="297mm"
   viewBox="0 0 210 297"
   version="1.1"
   id="svg5"
   inkscape:version="1.1 (c68e22c387, 2021-05-23)"
   sodipodi:docname="six.svg"
   xmlns:inkscape="http://www.inkscape.org/namespaces/inkscape"
   xmlns:sodipodi="http://sodipodi.sourceforge.net/DTD/sodipodi-0.dtd"
   xmlns="http://www.w3.org/2000/svg"
   xmlns:svg="http://www.w3.org/2000/svg">
  <sodipodi:namedview
     id="namedview7"
     pagecolor="#ffffff"
     bordercolor="#666666"
     borderopacity="1.0"
     inkscape:pageshadow="2"
     inkscape:pageopacity="0.0"
     inkscape:pagecheckerboard="0"
     inkscape:document-units="mm"
     showgrid="false"
     inkscape:zoom="6.2217172"
     inkscape:cx="50.709473"
     inkscape:cy="94.909489"
     inkscape:window-width="1904"
     inkscape:window-height="2081"
     inkscape:window-x="960"
     inkscape:window-y="0"
     inkscape:window-maximized="1"
     inkscape:current-layer="layer1" />
  <defs
     id="defs2" />
  <g
     inkscape:label="Layer 1"
     inkscape:groupmode="layer"
     id="layer1">
    <path
       style="fill:none;stroke:#ffffff;stroke-width:0.264583px;stroke-linecap:butt;stroke-linejoin:miter;stroke-opacity:1"
       d="M 23.474227,2.5940721 C 20.005675,-1.4790264 3.9395953,2.6172564 2.5515464,19.646907 1.3050366,26.991884 6.1833094,37.198121 13.48067,38.698453 c 5.346111,1.099157 12.2713,-4.107468 12.927836,-9.525771 0.928184,-5.809539 -3.41734,-13.24701 -10.376289,-13.012888 -3.774861,-0.8485 -12.091314,2.591581 -12.9703614,4.635309 1.1134982,1.126974 9.0925644,-4.694557 12.5876294,-3.402062 6.735226,-0.357693 10.402096,6.140144 9.483247,11.481958 -0.490131,4.705448 -6.446381,9.70122 -11.099227,8.845362 C 7.2144519,36.466044 2.4691555,26.681508 3.4445876,19.817011 5.5037371,4.7318216 17.25295,0.30410772 23.474227,2.5940721 Z"
       id="path12715"
       sodipodi:nodetypes="ccccccccccc" />
  </g>
</svg>
